<?xml version="1.0" encoding="UTF-8"?>
<svg version="1.1" xmlns="http://www.w3.org/2000/svg" width="500" height="500">
<path d="M0 0 C165 0 330 0 500 0 C500 165 500 330 500 500 C335 500 170 500 0 500 C0 335 0 170 0 0 Z " fill="#0F172B" transform="translate(0,0)"/>
<path d="M0 0 C21.82760277 16.84117622 35.58128002 40.34491321 39.16113281 67.66113281 C39.76435589 75.62345634 39.68524465 83.61825014 39.66113281 91.59863281 C39.64908271 95.69154612 39.66264712 99.7831771 39.69238281 103.87597656 C39.68106323 104.80192123 39.66974365 105.72786591 39.65808105 106.68186951 C39.66488892 107.54119583 39.67169678 108.40052216 39.67871094 109.28588867 C39.67552856 110.03688339 39.67234619 110.78787811 39.66906738 111.56163025 C40.12213779 114.32493402 40.12213779 114.32493402 44.16113281 117.66113281 C44.49113281 111.06113281 44.82113281 104.46113281 45.16113281 97.66113281 C45.49113281 97.66113281 45.82113281 97.66113281 46.16113281 97.66113281 C46.18618896 98.35263428 46.21124512 99.04413574 46.23706055 99.7565918 C46.35265443 102.87081148 46.47554523 105.98470071 46.59863281 109.09863281 C46.63794922 110.18724609 46.67726563 111.27585938 46.71777344 112.39746094 C46.78061523 113.94916992 46.78061523 113.94916992 46.84472656 115.53222656 C46.88138428 116.49056396 46.91804199 117.44890137 46.95581055 118.4362793 C46.91947706 120.63252207 46.91947706 120.63252207 48.16113281 121.66113281 C48.49113281 116.05113281 48.82113281 110.44113281 49.16113281 104.66113281 C49.49113281 104.66113281 49.82113281 104.66113281 50.16113281 104.66113281 C50.18618896 105.31710449 50.21124512 105.97307617 50.23706055 106.64892578 C50.35286541 109.61153464 50.47566167 112.57381312 50.59863281 115.53613281 C50.63794922 116.56867188 50.67726563 117.60121094 50.71777344 118.66503906 C50.78061523 120.14423828 50.78061523 120.14423828 50.84472656 121.65332031 C50.89971313 123.02012939 50.89971313 123.02012939 50.95581055 124.41455078 C51.02690346 126.69596762 51.02690346 126.69596762 52.16113281 128.66113281 C52.49113281 121.07113281 52.82113281 113.48113281 53.16113281 105.66113281 C53.49113281 105.66113281 53.82113281 105.66113281 54.16113281 105.66113281 C54.2858286 111.56519082 54.37598433 117.46846264 54.43579102 123.37353516 C54.46075293 125.37725193 54.49473503 127.38087936 54.53833008 129.38427734 C54.84578774 143.88904488 54.66082792 155.86221825 44.06347656 166.96972656 C40.24379983 170.36586625 36.40333891 173.66113281 31.16113281 173.66113281 C31.1959375 174.67433594 31.23074219 175.68753906 31.26660156 176.73144531 C31.29475877 178.08299111 31.32205684 179.434555 31.34863281 180.78613281 C31.37376953 181.45128906 31.39890625 182.11644531 31.42480469 182.80175781 C31.49448374 187.53993367 30.65150543 190.6445936 28.16113281 194.66113281 C21.53774785 200.7877639 14.94193732 199.90889169 6.34863281 199.97363281 C5.07697266 200.00263672 3.8053125 200.03164063 2.49511719 200.06152344 C-6.77337188 200.12464044 -6.77337188 200.12464044 -11.47558594 198.07910156 C-18.73927395 190.64732821 -18.48448745 183.7622938 -18.58886719 173.72363281 C-18.6170639 172.35836115 -18.64699644 170.99312417 -18.67871094 169.62792969 C-18.74914892 166.30560487 -18.80197856 162.98397145 -18.83886719 159.66113281 C-23.02076168 161.44103006 -24.03254892 163.50660079 -25.83886719 167.66113281 C-26.49886719 167.33113281 -27.15886719 167.00113281 -27.83886719 166.66113281 C-28.46386719 163.59863281 -28.46386719 163.59863281 -28.83886719 160.66113281 C-29.16886719 160.66113281 -29.49886719 160.66113281 -29.83886719 160.66113281 C-30.16886719 162.97113281 -30.49886719 165.28113281 -30.83886719 167.66113281 C-31.82886719 167.99113281 -32.81886719 168.32113281 -33.83886719 168.66113281 C-34.85439006 163.62330397 -34.9808588 158.81806399 -34.96826172 153.70581055 C-34.9708902 152.38518112 -34.9708902 152.38518112 -34.97357178 151.03787231 C-34.97795762 148.14013676 -34.97506406 145.24246269 -34.97167969 142.34472656 C-34.9723536 140.32503752 -34.97332436 138.30534856 -34.97457886 136.28565979 C-34.97605135 132.05835191 -34.97391543 127.83106519 -34.96923828 123.60375977 C-34.96353762 118.18772163 -34.96682499 112.77173301 -34.97281075 107.35569668 C-34.97642532 103.1872775 -34.9752737 99.01887005 -34.97268295 94.85045052 C-34.97201636 92.85337379 -34.97283277 90.85629599 -34.97516251 88.8592205 C-34.9777041 86.06847183 -34.97382728 83.27780326 -34.96826172 80.48706055 C-34.97028595 79.66354599 -34.97231018 78.84003143 -34.97439575 77.99156189 C-34.95995553 74.0797061 -34.80336551 70.4813396 -33.83886719 66.66113281 C-35.15886719 66.66113281 -36.47886719 66.66113281 -37.83886719 66.66113281 C-37.82887444 68.5336824 -37.82887444 68.5336824 -37.81867981 70.44406128 C-37.75796509 82.1868948 -37.71294099 93.92969664 -37.68343067 105.67265129 C-37.6677493 111.71038205 -37.64646597 117.74798649 -37.61254883 123.78564453 C-37.58004351 129.60816826 -37.56203281 135.43057021 -37.55423546 141.25317764 C-37.54867605 143.47883142 -37.53782049 145.70447824 -37.52167702 147.93008041 C-37.50002017 151.03833369 -37.49689534 154.14607842 -37.49829102 157.25439453 C-37.48750519 158.18227783 -37.47671936 159.11016113 -37.46560669 160.06616211 C-37.46973068 160.91032684 -37.47385468 161.75449158 -37.47810364 162.62423706 C-37.47533826 163.35982786 -37.47257288 164.09541866 -37.4697237 164.85330009 C-37.83886719 166.66113281 -37.83886719 166.66113281 -40.83886719 168.66113281 C-41.03222656 168.05785156 -41.22558594 167.45457031 -41.42480469 166.83300781 C-41.68519531 166.03378906 -41.94558594 165.23457031 -42.21386719 164.41113281 C-42.46910156 163.62222656 -42.72433594 162.83332031 -42.98730469 162.02050781 C-43.79218968 159.79045948 -44.77853722 157.77761822 -45.83886719 155.66113281 C-46.36485189 154.19100557 -46.86449085 152.71121512 -47.33886719 151.22363281 C-48.1478418 148.71457958 -48.97988112 146.33457422 -50.02636719 143.91113281 C-50.94412069 141.36966158 -50.99211074 139.34289499 -50.83886719 136.66113281 C-51.49886719 136.66113281 -52.15886719 136.66113281 -52.83886719 136.66113281 C-53.82886719 133.19613281 -53.82886719 133.19613281 -54.83886719 129.66113281 C-57.97161747 131.28783947 -57.97161747 131.28783947 -58.46386719 133.76269531 C-58.64949219 135.01179688 -58.64949219 135.01179688 -58.83886719 136.28613281 C-59.65683122 141.05527904 -61.01532462 145.18516469 -62.83886719 149.66113281 C-65.69887751 148.37905922 -67.90926131 147.16962045 -69.83886719 144.66113281 C-69.83886719 143.34113281 -69.83886719 142.02113281 -69.83886719 140.66113281 C-70.82886719 140.33113281 -71.81886719 140.00113281 -72.83886719 139.66113281 C-73.49886719 139.00113281 -74.15886719 138.34113281 -74.83886719 137.66113281 C-76.15886719 137.66113281 -77.47886719 137.66113281 -78.83886719 137.66113281 C-79.49886719 138.98113281 -80.15886719 140.30113281 -80.83886719 141.66113281 C-81.49886719 141.66113281 -82.15886719 141.66113281 -82.83886719 141.66113281 C-82.94199219 142.30050781 -83.04511719 142.93988281 -83.15136719 143.59863281 C-83.37824219 144.27925781 -83.60511719 144.95988281 -83.83886719 145.66113281 C-84.82886719 145.99113281 -85.81886719 146.32113281 -86.83886719 146.66113281 C-87.12761719 147.32113281 -87.41636719 147.98113281 -87.71386719 148.66113281 C-88.83886719 150.66113281 -88.83886719 150.66113281 -91.46386719 151.41113281 C-92.24761719 151.49363281 -93.03136719 151.57613281 -93.83886719 151.66113281 C-94.16886719 150.67113281 -94.49886719 149.68113281 -94.83886719 148.66113281 C-94.85344971 149.77560791 -94.86803223 150.89008301 -94.88305664 152.03833008 C-94.94128798 156.19652441 -95.01851832 160.35419123 -95.10131836 164.51196289 C-95.13445132 166.30712281 -95.16251906 168.10238399 -95.18530273 169.89770508 C-95.21906383 172.48725293 -95.27138844 175.07588252 -95.32714844 177.66503906 C-95.33353836 178.46011368 -95.33992828 179.25518829 -95.34651184 180.07435608 C-95.51897409 186.69833659 -96.8857263 191.41502079 -101.33886719 196.53613281 C-106.43800286 200.87039813 -112.62013002 200.02405819 -119.01586914 200.12109375 C-121.00256145 200.16065872 -122.98826073 200.24267614 -124.97363281 200.32519531 C-135.79248356 200.47904388 -135.79248356 200.47904388 -140.70214844 196.31738281 C-145.02072702 191.9038456 -144.83886719 188.28602093 -144.83886719 182.28613281 C-144.95800783 177.08154533 -144.95800783 177.08154533 -147.65917969 172.80957031 C-149.96254303 171.62431663 -149.96254303 171.62431663 -152.42871094 170.66503906 C-159.63466096 167.66353314 -163.31390738 160.73874188 -166.57965088 154.02600098 C-168.67342632 148.43103029 -168.58218322 143.14962765 -168.42480469 137.23925781 C-168.416315 136.01325867 -168.40782532 134.78725952 -168.39907837 133.52410889 C-168.36579823 129.65217927 -168.29055978 125.78242076 -168.21386719 121.91113281 C-168.18373511 119.26793396 -168.15636505 116.6247021 -168.13183594 113.98144531 C-168.06609002 107.5406147 -167.96599695 101.10102892 -167.83886719 94.66113281 C-167.50886719 94.66113281 -167.17886719 94.66113281 -166.83886719 94.66113281 C-166.50886719 105.55113281 -166.17886719 116.44113281 -165.83886719 127.66113281 C-164.42251886 124.82843615 -164.49256669 122.18646843 -164.27636719 119.03613281 C-164.19257813 117.84761719 -164.10878906 116.65910156 -164.02246094 115.43457031 C-163.961875 114.51933594 -163.90128906 113.60410156 -163.83886719 112.66113281 C-163.50886719 112.66113281 -163.17886719 112.66113281 -162.83886719 112.66113281 C-162.50886719 115.63113281 -162.17886719 118.60113281 -161.83886719 121.66113281 C-161.17886719 119.35113281 -160.51886719 117.04113281 -159.83886719 114.66113281 C-159.17886719 115.32113281 -158.51886719 115.98113281 -157.83886719 116.66113281 C-156.17543882 114.99770444 -156.47838622 112.87856192 -156.27636719 110.59863281 C-156.19257813 109.67953125 -156.10878906 108.76042969 -156.02246094 107.81347656 C-155.961875 107.10320312 -155.90128906 106.39292969 -155.83886719 105.66113281 C-155.50886719 105.66113281 -155.17886719 105.66113281 -154.83886719 105.66113281 C-154.82952148 104.6042627 -154.82017578 103.54739258 -154.81054688 102.45849609 C-154.76992176 98.44345694 -154.70398596 94.42912746 -154.63134766 90.41455078 C-154.60354972 88.69459318 -154.58213634 86.9745176 -154.56787109 85.25439453 C-154.31477115 56.41787385 -146.17199937 31.61933415 -125.83886719 10.66113281 C-125.23945313 9.98824219 -124.64003906 9.31535156 -124.02246094 8.62207031 C-92.57330311 -25.47615265 -36.2558432 -26.39764261 0 0 Z " fill="#10172C" transform="translate(306.8388671875,127.3388671875)"/>
<path d="M0 0 C21.82760277 16.84117622 35.58128002 40.34491321 39.16113281 67.66113281 C39.76435589 75.62345634 39.68524465 83.61825014 39.66113281 91.59863281 C39.64908271 95.69154612 39.66264712 99.7831771 39.69238281 103.87597656 C39.68106323 104.80192123 39.66974365 105.72786591 39.65808105 106.68186951 C39.66488892 107.54119583 39.67169678 108.40052216 39.67871094 109.28588867 C39.67552856 110.03688339 39.67234619 110.78787811 39.66906738 111.56163025 C40.12213779 114.32493402 40.12213779 114.32493402 44.16113281 117.66113281 C44.49113281 111.06113281 44.82113281 104.46113281 45.16113281 97.66113281 C45.49113281 97.66113281 45.82113281 97.66113281 46.16113281 97.66113281 C46.18618896 98.35263428 46.21124512 99.04413574 46.23706055 99.7565918 C46.35265443 102.87081148 46.47554523 105.98470071 46.59863281 109.09863281 C46.63794922 110.18724609 46.67726563 111.27585938 46.71777344 112.39746094 C46.78061523 113.94916992 46.78061523 113.94916992 46.84472656 115.53222656 C46.88138428 116.49056396 46.91804199 117.44890137 46.95581055 118.4362793 C46.91947706 120.63252207 46.91947706 120.63252207 48.16113281 121.66113281 C48.49113281 116.05113281 48.82113281 110.44113281 49.16113281 104.66113281 C49.49113281 104.66113281 49.82113281 104.66113281 50.16113281 104.66113281 C50.18618896 105.31710449 50.21124512 105.97307617 50.23706055 106.64892578 C50.35286541 109.61153464 50.47566167 112.57381312 50.59863281 115.53613281 C50.63794922 116.56867188 50.67726563 117.60121094 50.71777344 118.66503906 C50.78061523 120.14423828 50.78061523 120.14423828 50.84472656 121.65332031 C50.89971313 123.02012939 50.89971313 123.02012939 50.95581055 124.41455078 C51.02690346 126.69596762 51.02690346 126.69596762 52.16113281 128.66113281 C52.49113281 121.07113281 52.82113281 113.48113281 53.16113281 105.66113281 C53.49113281 105.66113281 53.82113281 105.66113281 54.16113281 105.66113281 C54.2858286 111.56519082 54.37598433 117.46846264 54.43579102 123.37353516 C54.46075293 125.37725193 54.49473503 127.38087936 54.53833008 129.38427734 C54.84578774 143.88904488 54.66082792 155.86221825 44.06347656 166.96972656 C40.24379983 170.36586625 36.40333891 173.66113281 31.16113281 173.66113281 C31.1959375 174.67433594 31.23074219 175.68753906 31.26660156 176.73144531 C31.29475877 178.08299111 31.32205684 179.434555 31.34863281 180.78613281 C31.37376953 181.45128906 31.39890625 182.11644531 31.42480469 182.80175781 C31.49448374 187.53993367 30.65150543 190.6445936 28.16113281 194.66113281 C21.53774785 200.7877639 14.94193732 199.90889169 6.34863281 199.97363281 C5.07697266 200.00263672 3.8053125 200.03164063 2.49511719 200.06152344 C-6.77337188 200.12464044 -6.77337188 200.12464044 -11.47558594 198.07910156 C-17.23543749 192.18596418 -18.43278032 187.29325155 -18.35644531 179.33276367 C-18.36345459 178.42454361 -18.37046387 177.51632355 -18.37768555 176.58058167 C-18.39520967 173.5953971 -18.38366353 170.61116981 -18.37011719 167.62597656 C-18.37281347 165.54284992 -18.37669702 163.45972451 -18.38171387 161.37660217 C-18.38760116 157.01811703 -18.3790697 152.65996052 -18.36035156 148.30151367 C-18.3375485 142.72056683 -18.35069886 137.14038891 -18.37464142 131.55947018 C-18.38910795 127.26056645 -18.38448968 122.96184451 -18.37413025 118.66293526 C-18.37146608 116.60528026 -18.37472181 114.54760865 -18.38404846 112.48997307 C-18.39422953 109.61290744 -18.37869156 106.73708096 -18.35644531 103.86010742 C-18.36454224 103.01370697 -18.37263916 102.16730652 -18.38098145 101.29525757 C-18.30448451 95.94378493 -17.36987954 92.91746056 -13.83886719 88.66113281 C-7.23979109 82.84766101 -2.21206728 83.41540894 6.34863281 83.34863281 C7.56873047 83.31962891 8.78882813 83.290625 10.04589844 83.26074219 C16.94385432 83.2120331 21.63290047 83.34895158 27.16113281 87.66113281 C27.49113281 88.32113281 27.82113281 88.98113281 28.16113281 89.66113281 C28.71704418 63.87302197 23.85797597 40.25285783 6.16113281 20.66113281 C5.49726563 19.90445313 4.83339844 19.14777344 4.14941406 18.36816406 C-9.39271505 3.82476847 -30.00694034 -6.0385871 -49.86230469 -6.77246094 C-52.31271746 -6.79551125 -54.76342724 -6.79631955 -57.21386719 -6.77636719 C-58.49302002 -6.77024414 -59.77217285 -6.76412109 -61.09008789 -6.7578125 C-70.02275968 -6.60949558 -77.53160577 -5.77924818 -85.83886719 -2.33886719 C-86.680625 -2.06171875 -87.52238281 -1.78457031 -88.38964844 -1.49902344 C-109.338992 5.75138733 -124.50850902 22.47529554 -134.65136719 41.53613281 C-142.10293621 57.35772006 -142.36974252 71.45873025 -141.83886719 88.66113281 C-141.05511719 88.02175781 -140.27136719 87.38238281 -139.46386719 86.72363281 C-133.988479 82.42154209 -128.33904828 83.43911284 -121.58886719 83.41113281 C-120.36039063 83.39050781 -119.13191406 83.36988281 -117.86621094 83.34863281 C-116.08150391 83.34089844 -116.08150391 83.34089844 -114.26074219 83.33300781 C-113.17374023 83.32366211 -112.08673828 83.31431641 -110.96679688 83.3046875 C-105.4606703 83.93214182 -101.3370577 86.41333005 -97.83886719 90.66113281 C-95.28456193 95.39955417 -95.56707187 100.04720951 -95.60839844 105.28613281 C-95.60831284 106.24552765 -95.60822723 107.20492249 -95.60813904 108.19338989 C-95.61143873 111.34944489 -95.63036645 114.50514907 -95.65136719 117.66113281 C-95.66094652 119.85107361 -95.67038495 122.04101504 -95.6796875 124.23095703 C-95.70871227 129.90848185 -95.75587643 135.58571521 -95.80889893 141.26306152 C-95.83829791 144.5965833 -95.86065798 147.93008584 -95.88134766 151.26367188 C-95.91597975 156.45774952 -95.97349465 161.65109211 -96.04940796 166.84472656 C-96.07556901 168.7948477 -96.09551636 170.74506278 -96.10903931 172.6953125 C-96.1302315 175.41635553 -96.17655024 178.13585912 -96.22949219 180.85644531 C-96.23073593 181.64914825 -96.23197968 182.4418512 -96.23326111 183.25857544 C-96.38006696 188.80208163 -97.49855319 192.17690435 -100.83886719 196.66113281 C-107.1340724 200.8893852 -113.88836401 200.24972375 -121.21386719 200.28613281 C-122.50292969 200.33125 -123.79199219 200.37636719 -125.12011719 200.42285156 C-131.34722386 200.4676049 -135.80361867 200.44691054 -140.69042969 196.30957031 C-145.02374698 191.90164116 -144.83886719 188.29206509 -144.83886719 182.28613281 C-144.95800783 177.08154533 -144.95800783 177.08154533 -147.65917969 172.80957031 C-149.96254303 171.62431663 -149.96254303 171.62431663 -152.42871094 170.66503906 C-159.63466096 167.66353314 -163.31390738 160.73874188 -166.57965088 154.02600098 C-168.67342632 148.43103029 -168.58218322 143.14962765 -168.42480469 137.23925781 C-168.416315 136.01325867 -168.40782532 134.78725952 -168.39907837 133.52410889 C-168.36579823 129.65217927 -168.29055978 125.78242076 -168.21386719 121.91113281 C-168.18373511 119.26793396 -168.15636505 116.6247021 -168.13183594 113.98144531 C-168.06609002 107.5406147 -167.96599695 101.10102892 -167.83886719 94.66113281 C-167.50886719 94.66113281 -167.17886719 94.66113281 -166.83886719 94.66113281 C-166.50886719 105.55113281 -166.17886719 116.44113281 -165.83886719 127.66113281 C-164.42251886 124.82843615 -164.49256669 122.18646843 -164.27636719 119.03613281 C-164.19257813 117.84761719 -164.10878906 116.65910156 -164.02246094 115.43457031 C-163.961875 114.51933594 -163.90128906 113.60410156 -163.83886719 112.66113281 C-163.50886719 112.66113281 -163.17886719 112.66113281 -162.83886719 112.66113281 C-162.50886719 115.63113281 -162.17886719 118.60113281 -161.83886719 121.66113281 C-161.17886719 119.35113281 -160.51886719 117.04113281 -159.83886719 114.66113281 C-159.17886719 115.32113281 -158.51886719 115.98113281 -157.83886719 116.66113281 C-156.17543882 114.99770444 -156.47838622 112.87856192 -156.27636719 110.59863281 C-156.19257813 109.67953125 -156.10878906 108.76042969 -156.02246094 107.81347656 C-155.961875 107.10320312 -155.90128906 106.39292969 -155.83886719 105.66113281 C-155.50886719 105.66113281 -155.17886719 105.66113281 -154.83886719 105.66113281 C-154.82952148 104.6042627 -154.82017578 103.54739258 -154.81054688 102.45849609 C-154.76992176 98.44345694 -154.70398596 94.42912746 -154.63134766 90.41455078 C-154.60354972 88.69459318 -154.58213634 86.9745176 -154.56787109 85.25439453 C-154.31477115 56.41787385 -146.17199937 31.61933415 -125.83886719 10.66113281 C-125.23945313 9.98824219 -124.64003906 9.31535156 -124.02246094 8.62207031 C-92.57330311 -25.47615265 -36.2558432 -26.39764261 0 0 Z " fill="#C068C4" transform="translate(306.8388671875,127.3388671875)"/>
<path d="M0 0 C1.01449219 -0.00386719 2.02898437 -0.00773438 3.07421875 -0.01171875 C4.13253906 -0.00011719 5.19085938 0.01148438 6.28125 0.0234375 C7.33957031 0.01183594 8.39789063 0.00023437 9.48828125 -0.01171875 C11.01001953 -0.00591797 11.01001953 -0.00591797 12.5625 0 C13.9556543 0.00507568 13.9556543 0.00507568 15.37695312 0.01025391 C18.26887991 0.47716735 18.97387214 1.14757717 20.78125 3.3984375 C21.07753597 6.32071004 21.19092346 9.02986231 21.16943359 11.953125 C21.17469055 12.82656555 21.17994751 13.7000061 21.18536377 14.59991455 C21.19858324 17.49127 21.1898188 20.38207631 21.1796875 23.2734375 C21.18170768 25.27978623 21.18461864 27.28613425 21.18838501 29.29248047 C21.192811 33.49909449 21.18636841 37.70551753 21.17236328 41.91210938 C21.1552713 47.30951133 21.16511101 52.70646579 21.18308067 58.10385132 C21.19391104 62.24734888 21.19047559 66.39073999 21.1826973 70.53424072 C21.18069322 72.5245977 21.1831618 74.51496429 21.19013596 76.50531006 C21.19773811 79.28505118 21.18616363 82.0640633 21.16943359 84.84375 C21.17854263 86.08285126 21.17854263 86.08285126 21.18783569 87.34698486 C21.12499989 92.97034053 21.12499989 92.97034053 19.40770912 95.10900879 C17.11327284 96.92799826 15.46440615 96.78630248 12.5625 96.796875 C11.54800781 96.80074219 10.53351563 96.80460937 9.48828125 96.80859375 C8.42996094 96.79699219 7.37164062 96.78539062 6.28125 96.7734375 C5.22292969 96.78503906 4.16460937 96.79664063 3.07421875 96.80859375 C1.55248047 96.80279297 1.55248047 96.80279297 0 96.796875 C-0.92876953 96.79349121 -1.85753906 96.79010742 -2.81445312 96.78662109 C-5.70637991 96.31970765 -6.41137214 95.64929783 -8.21875 93.3984375 C-8.51503597 90.47616496 -8.62842346 87.76701269 -8.60693359 84.84375 C-8.61219055 83.97030945 -8.61744751 83.0968689 -8.62286377 82.19696045 C-8.63608324 79.305605 -8.6273188 76.41479869 -8.6171875 73.5234375 C-8.61920768 71.51708877 -8.62211864 69.51074075 -8.62588501 67.50439453 C-8.630311 63.29778051 -8.62386841 59.09135747 -8.60986328 54.88476562 C-8.5927713 49.48736367 -8.60261101 44.09040921 -8.62058067 38.69302368 C-8.63141104 34.54952612 -8.62797559 30.40613501 -8.6201973 26.26263428 C-8.61819322 24.2722773 -8.6206618 22.28191071 -8.62763596 20.29156494 C-8.63523811 17.51182382 -8.62366363 14.7328117 -8.60693359 11.953125 C-8.61300629 11.1270575 -8.61907898 10.30098999 -8.62533569 9.44989014 C-8.56249989 3.82653447 -8.56249989 3.82653447 -6.84520912 1.68786621 C-4.55077284 -0.13112326 -2.90190615 0.01057252 0 0 Z " fill="#0F172B" transform="translate(307.21875,220.6015625)"/>
<path d="M0 0 C0.969375 0.00064453 1.93875 0.00128906 2.9375 0.00195312 C4.4534375 0.02612305 4.4534375 0.02612305 6 0.05078125 C7.010625 0.04755859 8.02125 0.04433594 9.0625 0.04101562 C16.59928571 0.09613839 16.59928571 0.09613839 20 2.36328125 C20.1875 5.48828125 20.1875 5.48828125 20 8.36328125 C19.34 8.36328125 18.68 8.36328125 18 8.36328125 C18 19.91328125 18 31.46328125 18 43.36328125 C18.66 43.36328125 19.32 43.36328125 20 43.36328125 C20.05058332 50.58981345 20.08568412 57.81630024 20.10986328 65.04296875 C20.11993983 67.50294704 20.13360131 69.96291331 20.15087891 72.42285156 C20.17505461 75.9525041 20.1864664 79.48199872 20.1953125 83.01171875 C20.20563507 84.11695892 20.21595764 85.2221991 20.22659302 86.3609314 C20.22674408 87.38183868 20.22689514 88.40274597 20.22705078 89.45458984 C20.231492 90.35615814 20.23593323 91.25772644 20.24050903 92.18661499 C20 94.36328125 20 94.36328125 18 96.36328125 C15.6015625 96.62207031 15.6015625 96.62207031 12.625 96.62890625 C11.55765625 96.63148438 10.4903125 96.6340625 9.390625 96.63671875 C7.71226562 96.62511719 7.71226562 96.62511719 6 96.61328125 C4.88109375 96.62101562 3.7621875 96.62875 2.609375 96.63671875 C1.54203125 96.63414062 0.4746875 96.6315625 -0.625 96.62890625 C-1.60726562 96.62665039 -2.58953125 96.62439453 -3.6015625 96.62207031 C-6 96.36328125 -6 96.36328125 -8 94.36328125 C-8.20399918 91.4875078 -8.28315427 88.70764101 -8.2746582 85.83032227 C-8.27976913 84.94727417 -8.28488007 84.06422607 -8.29014587 83.15441895 C-8.30408549 80.22527351 -8.30308182 77.29636223 -8.30078125 74.3671875 C-8.30466582 72.33698946 -8.30899999 70.30679223 -8.31376648 68.27659607 C-8.32123813 64.01697152 -8.32093061 59.75742983 -8.31567383 55.49780273 C-8.30987841 50.0320139 -8.32680744 44.56656383 -8.3500185 39.10083103 C-8.36473173 34.90673327 -8.36563082 30.71271755 -8.36250877 26.51859856 C-8.36302322 24.5031155 -8.36828388 22.487628 -8.37832069 20.47216988 C-8.39062093 17.6564326 -8.38393207 14.84136093 -8.37231445 12.02563477 C-8.37995819 11.18864548 -8.38760193 10.35165619 -8.39547729 9.48930359 C-8.34335274 3.79017737 -8.34335274 3.79017737 -6.62114239 1.64892483 C-4.37483738 -0.13250266 -2.84249047 -0.00955416 0 0 Z " fill="#181E39" transform="translate(180,220.63671875)"/>
<path d="M0 0 C1.01449219 -0.00386719 2.02898437 -0.00773438 3.07421875 -0.01171875 C4.13253906 -0.00011719 5.19085938 0.01148438 6.28125 0.0234375 C7.33957031 0.01183594 8.39789063 0.00023437 9.48828125 -0.01171875 C11.01001953 -0.00591797 11.01001953 -0.00591797 12.5625 0 C13.9556543 0.00507568 13.9556543 0.00507568 15.37695312 0.01025391 C18.26901289 0.47718882 18.97542007 1.14577686 20.78125 3.3984375 C21.06194811 6.33759355 21.15997448 9.06235088 21.12182617 12.00073242 C21.12248329 13.31812157 21.12248329 13.31812157 21.12315369 14.66212463 C21.12106201 17.56794387 21.09771306 20.47318768 21.07421875 23.37890625 C21.06862415 25.39243759 21.06435341 27.40597301 21.06135559 29.41950989 C21.04989616 34.7214585 21.02041945 40.02316093 20.98724365 45.32501221 C20.95656647 50.73421905 20.94285528 56.14346563 20.92773438 61.55273438 C20.89555088 72.16807697 20.84434119 82.78323677 20.78125 93.3984375 C20.45125 93.3984375 20.12125 93.3984375 19.78125 93.3984375 C19.78125 76.5684375 19.78125 59.7384375 19.78125 42.3984375 C16.07394089 41.09662654 16.07394089 41.09662654 13.65625 42.0859375 C11.62975912 43.2677104 11.62975912 43.2677104 10.84375 45.4609375 C10.493125 46.1003125 10.1425 46.7396875 9.78125 47.3984375 C7.15625 48.1484375 7.15625 48.1484375 4.78125 48.3984375 C4.45125 47.7384375 4.12125 47.0784375 3.78125 46.3984375 C3.12125 46.3984375 2.46125 46.3984375 1.78125 46.3984375 C1.12125 45.0784375 0.46125 43.7584375 -0.21875 42.3984375 C-1.53875 42.3984375 -2.85875 42.3984375 -4.21875 42.3984375 C-4.363125 43.5121875 -4.5075 44.6259375 -4.65625 45.7734375 C-5.21875 49.3984375 -5.21875 49.3984375 -6.21875 51.3984375 C-6.33579964 52.75596046 -6.39552189 54.11869638 -6.42407227 55.48095703 C-6.44401749 56.32167755 -6.46396271 57.16239807 -6.48451233 58.02859497 C-6.50122482 58.93697113 -6.51793732 59.84534729 -6.53515625 60.78125 C-6.55593735 61.71065399 -6.57671844 62.64005798 -6.59812927 63.59762573 C-6.66362646 66.5728196 -6.72251052 69.54810327 -6.78125 72.5234375 C-6.82443506 74.53776978 -6.86804934 76.55209291 -6.91210938 78.56640625 C-7.01930803 83.51032413 -7.12057501 88.45433253 -7.21875 93.3984375 C-7.54875 93.3984375 -7.87875 93.3984375 -8.21875 93.3984375 C-8.2881858 81.71574524 -8.34152861 70.03310187 -8.37418652 58.35024548 C-8.38985874 52.92572441 -8.41112547 47.50134425 -8.44506836 42.0769043 C-8.4776062 36.84440534 -8.49559128 31.61204214 -8.50338173 26.37944984 C-8.50893527 24.38069839 -8.51977965 22.38195456 -8.53594017 20.38326073 C-8.55764032 17.58891984 -8.56072004 14.79514368 -8.55932617 12.00073242 C-8.57550491 10.75456146 -8.57550491 10.75456146 -8.5920105 9.48321533 C-8.56136816 3.82583237 -8.56136816 3.82583237 -6.84647083 1.6866045 C-4.55087128 -0.13011709 -2.90157155 0.01057131 0 0 Z " fill="#363363" transform="translate(307.21875,220.6015625)"/>
<path d="M0 0 C0 30.69 0 61.38 0 93 C-3 91 -3 91 -3.5625 88.625 C-3.706875 87.75875 -3.85125 86.8925 -4 86 C-4.66110537 84.66390049 -5.32843591 83.33087336 -6 82 C-6.54747405 80.4885525 -7.0681474 78.967146 -7.5625 77.4375 C-7.81128906 76.67308594 -8.06007813 75.90867187 -8.31640625 75.12109375 C-8.54199219 74.42113281 -8.76757812 73.72117187 -9 73 C-9.33 72.01 -9.66 71.02 -10 70 C-10.11085654 68.50508543 -10.16871008 67.00590461 -10.19287109 65.50708008 C-10.20893402 64.59795364 -10.22499695 63.68882721 -10.24154663 62.75215149 C-10.28648019 58.54970254 -10.32716123 54.34740984 -10.35009766 50.14477539 C-10.3665261 47.94642453 -10.39363833 45.74812409 -10.43212891 43.55004883 C-10.66674235 30.06385603 -10.15313396 18.58504567 -5 6 C-4.65759277 5.05616455 -4.31518555 4.1123291 -3.96240234 3.13989258 C-3.01798618 1.03999211 -2.47953039 0 0 0 Z " fill="#403D77" transform="translate(267,201)"/>
<path d="M0 0 C0 13.86 0 27.72 0 42 C-5.65543071 39.73782772 -5.65543071 39.73782772 -8.1875 36.1875 C-8.67605469 35.52105469 -9.16460937 34.85460937 -9.66796875 34.16796875 C-13.63634187 27.70917966 -14.15993608 20.92575595 -12.4296875 13.578125 C-11.14692654 9.87837233 -10.31098494 8.20732329 -7 6 C-6.67 5.34 -6.34 4.68 -6 4 C-4.63772207 1.27544414 -3.11734545 0 0 0 Z " fill="#222344" transform="translate(162,248)"/>
<path d="M0 0 C0.99 0.495 0.99 0.495 2 1 C2 4.3 2 7.6 2 11 C2.66 11 3.32 11 4 11 C4 8.36 4 5.72 4 3 C9.15366794 6.29262119 11.28724561 10.28161036 13 16 C14.16083674 23.49384608 12.27022385 30.63128074 8.0625 36.875 C6.13814059 38.85767334 4.33371536 40.52198027 2 42 C1.34 42 0.68 42 0 42 C0 28.14 0 14.28 0 0 Z " fill="#11182C" transform="translate(338,248)"/>
<path d="M0 0 C0 23.1 0 46.2 0 70 C-4.28187659 67.1454156 -4.89605909 63.9016189 -6 59 C-6.39377881 55.31679304 -6.4215622 51.67446857 -6.3984375 47.97265625 C-6.40130768 46.94369736 -6.40417786 45.91473846 -6.40713501 44.854599 C-6.40916556 42.69057664 -6.4037068 40.5265355 -6.39111328 38.36254883 C-6.3750623 35.07526011 -6.39098861 31.78920383 -6.41015625 28.50195312 C-6.40817332 26.38801815 -6.40432861 24.27408394 -6.3984375 22.16015625 C-6.40451019 21.19006119 -6.41058289 20.21996613 -6.4168396 19.22047424 C-6.35218233 12.85359268 -5.60109126 6.87825774 -3 1 C-1 0 -1 0 0 0 Z " fill="#554D98" transform="translate(263,212)"/>
<path d="M0 0 C0.66 0 1.32 0 2 0 C2 0.66 2 1.32 2 2 C2.66 2 3.32 2 4 2 C4.84360852 4.94427465 5.13508834 7.58272093 5.16113281 10.64160156 C5.17074036 11.55645325 5.1803479 12.47130493 5.19024658 13.41387939 C5.19449646 14.39620544 5.19874634 15.37853149 5.203125 16.390625 C5.20882507 17.40920593 5.21452515 18.42778687 5.22039795 19.47723389 C5.22983884 21.63243575 5.23637831 23.787652 5.24023438 25.94287109 C5.24992291 29.22389232 5.2809484 32.50428242 5.3125 35.78515625 C5.31903225 37.8828088 5.32428185 39.9804658 5.328125 42.078125 C5.3404718 43.05235413 5.3528186 44.02658325 5.36553955 45.03033447 C5.34604873 51.05378271 4.45794941 55.48867714 2 61 C1.01 60.67 0.02 60.34 -1 60 C-1.02312821 52.32463373 -1.04091753 44.64927104 -1.05181217 36.97387791 C-1.05703995 33.41022578 -1.06413569 29.84659743 -1.07543945 26.28295898 C-1.08834176 22.18993903 -1.09322906 18.0969442 -1.09765625 14.00390625 C-1.10281754 12.71851456 -1.10797882 11.43312286 -1.11329651 10.10877991 C-1.11337204 8.92763107 -1.11344757 7.74648224 -1.11352539 6.52954102 C-1.115746 5.48363297 -1.11796661 4.43772491 -1.12025452 3.36012268 C-1 1 -1 1 0 0 Z " fill="#50498F" transform="translate(242,216)"/>
<path d="M0 0 C1.485 0.99 1.485 0.99 3 2 C3.30205494 4.91392396 3.40929533 7.61612549 3.38818359 10.53295898 C3.39344055 11.41600708 3.39869751 12.29905518 3.40411377 13.2088623 C3.41735531 16.13811755 3.40856029 19.06683263 3.3984375 21.99609375 C3.40045722 24.02629196 3.40336781 26.05648946 3.40713501 28.08668518 C3.41156414 32.34635306 3.40510901 36.6058325 3.39111328 40.86547852 C3.37403199 46.33128859 3.38385226 51.79665643 3.40183067 57.26245022 C3.41266185 61.45656171 3.40922503 65.65056806 3.4014473 69.84468269 C3.39944288 71.86015945 3.40191298 73.87564568 3.40888596 75.89111137 C3.41648824 78.70688087 3.4049129 81.52193071 3.38818359 84.33764648 C3.39425629 85.17463577 3.40032898 86.01162506 3.40658569 86.87397766 C3.34279423 92.65720577 3.34279423 92.65720577 0 96 C0 64.32 0 32.64 0 0 Z " fill="#464180" transform="translate(280,199)"/>
<path d="M0 0 C0.33 0 0.66 0 1 0 C1 16.5 1 33 1 50 C0.34 49.67 -0.32 49.34 -1 49 C-1 48.34 -1 47.68 -1 47 C-1.99 46.67 -2.98 46.34 -4 46 C-6.41680158 41.16639684 -5.31258552 33.79940395 -5.35009766 28.42553711 C-5.36661521 26.6923272 -5.3938498 24.95918423 -5.43212891 23.22631836 C-5.48719154 20.71953208 -5.50881816 18.21434269 -5.5234375 15.70703125 C-5.54610687 14.94010452 -5.56877625 14.1731778 -5.59213257 13.38301086 C-5.56909553 7.45178657 -3.85196107 4.50064589 0 0 Z " fill="#544C96" transform="translate(238,221)"/>
<path d="M0 0 C0.66 0 1.32 0 2 0 C2 30.03 2 60.06 2 91 C1.01 91.495 1.01 91.495 0 92 C-1.27303633 83.18292761 -1.1452741 74.37413528 -1.1328125 65.48828125 C-1.1334872 63.789159 -1.13445861 62.09003684 -1.13571167 60.39091492 C-1.13717962 56.84482903 -1.13506244 53.29876847 -1.13037109 49.75268555 C-1.12466124 45.21681623 -1.12796648 40.68100592 -1.13394356 36.14513874 C-1.13756244 32.64236509 -1.1364047 29.13960536 -1.13381577 25.63683128 C-1.13315085 23.96434713 -1.13395964 22.2918617 -1.13629532 20.61937904 C-1.13884511 18.28178187 -1.13494913 15.94427959 -1.12939453 13.60668945 C-1.13243088 12.58024574 -1.13243088 12.58024574 -1.13552856 11.5330658 C-1.11823053 7.58781669 -0.75441692 3.87179832 0 0 Z " fill="#4F488E" transform="translate(277,196)"/>
<path d="M0 0 C0.99 0.33 1.98 0.66 3 1 C3.0694077 11.65688885 3.12276419 22.31372422 3.15543652 32.97079277 C3.17111495 37.91892333 3.19239277 42.86689964 3.22631836 47.81494141 C3.2588344 52.58708341 3.2768366 57.35907675 3.28463173 62.13132095 C3.29018923 63.95506253 3.30104119 65.77879567 3.31719017 67.60247421 C3.33886167 70.1503657 3.34197129 72.69763715 3.34057617 75.24560547 C3.351362 76.00517548 3.36214783 76.76474548 3.3732605 77.54733276 C3.36076355 79.64645386 3.36076355 79.64645386 3 83 C1.515 83.99 1.515 83.99 0 85 C0 56.95 0 28.9 0 0 Z " fill="#484384" transform="translate(284,204)"/>
<path d="M0 0 C0.99 0.495 0.99 0.495 2 1 C1.98839844 1.93457031 1.97679687 2.86914062 1.96484375 3.83203125 C1.9208806 10.23180972 1.92942683 16.58595315 2.35804749 22.9752655 C3.28468506 37.00830164 3.11511129 51.06256084 3.06866455 65.11834717 C3.05825576 68.61209493 3.05383015 72.10585043 3.04882812 75.59960938 C3.03824714 82.39975791 3.02128341 89.19987673 3 96 C2.01 96.495 2.01 96.495 1 97 C-0.02517974 91.93481297 -0.13580872 87.1055716 -0.11352539 81.96533203 C-0.11367142 81.07688095 -0.11381744 80.18842987 -0.1139679 79.27305603 C-0.11327406 76.35128291 -0.10550647 73.42957441 -0.09765625 70.5078125 C-0.09579019 68.47614578 -0.09436717 66.44447861 -0.09336853 64.41281128 C-0.08955815 59.07648467 -0.07974051 53.74018545 -0.06866455 48.40386963 C-0.05841861 42.95414602 -0.05386409 37.50441797 -0.04882812 32.0546875 C-0.03811689 21.36977966 -0.02105826 10.68489211 0 0 Z " fill="#44407D" transform="translate(272,199)"/>
<path d="M0 0 C0.99 0 1.98 0 3 0 C3 21.45 3 42.9 3 65 C2.01 65 1.02 65 0 65 C0 43.55 0 22.1 0 0 Z " fill="#4B4588" transform="translate(213,214)"/>
<path d="M0 0 C0.33 0 0.66 0 1 0 C1.02529479 6.79930835 1.04284349 13.59860463 1.05493164 20.39794922 C1.05996943 22.71240696 1.06679981 25.0268615 1.07543945 27.34130859 C1.08752924 30.6624429 1.09323375 33.98353525 1.09765625 37.3046875 C1.10281754 38.34430634 1.10797882 39.38392517 1.11329651 40.45504761 C1.11337204 41.41589264 1.11344757 42.37673767 1.11352539 43.36669922 C1.115746 44.21497284 1.11796661 45.06324646 1.12025452 45.93722534 C1 48 1 48 0 50 C-0.11704964 51.35752296 -0.17677189 52.72025888 -0.20532227 54.08251953 C-0.22526749 54.92324005 -0.24521271 55.76396057 -0.26576233 56.63015747 C-0.28247482 57.53853363 -0.29918732 58.44690979 -0.31640625 59.3828125 C-0.33718735 60.31221649 -0.35796844 61.24162048 -0.37937927 62.19918823 C-0.44487646 65.1743821 -0.50376052 68.14966577 -0.5625 71.125 C-0.60568506 73.13933228 -0.64929934 75.15365541 -0.69335938 77.16796875 C-0.80055803 82.11188663 -0.90182501 87.05589503 -1 92 C-1.33 92 -1.66 92 -2 92 C-2.04626739 80.30001563 -2.08184065 68.6000529 -2.10362434 56.8999958 C-2.11407752 51.4676402 -2.12826461 46.03534702 -2.15087891 40.60302734 C-2.1725527 35.36405699 -2.18455706 30.12514681 -2.18975449 24.8861351 C-2.19346009 22.88377815 -2.20069583 20.88142462 -2.21146011 18.87909317 C-2.22590247 16.08224527 -2.227981 13.2856485 -2.22705078 10.48876953 C-2.23424133 9.65439362 -2.24143188 8.8200177 -2.24884033 7.96035767 C-2.22810432 2.22810432 -2.22810432 2.22810432 0 0 Z " fill="#604586" transform="translate(301,222)"/>
<path d="M0 0 C1.485 0.99 1.485 0.99 3 2 C3.38095093 4.46691895 3.38095093 4.46691895 3.38818359 7.61132812 C3.40236832 9.373255 3.40236832 9.373255 3.4168396 11.17077637 C3.41076691 12.44473267 3.40469421 13.71868896 3.3984375 15.03125 C3.40130768 16.33324341 3.40417786 17.63523682 3.40713501 18.97668457 C3.41156096 21.7340765 3.40511907 24.49117706 3.39111328 27.24853516 C3.37402066 30.78640179 3.38386048 34.32358574 3.40183067 37.86142731 C3.41526603 41.23058992 3.40586469 44.59956797 3.3984375 47.96875 C3.40451019 49.2427063 3.41058289 50.5166626 3.4168396 51.82922363 C3.40738312 53.00384155 3.39792664 54.17845947 3.38818359 55.38867188 C3.38579681 56.4263269 3.38341003 57.46398193 3.38095093 58.53308105 C3.25523712 59.34716431 3.12952332 60.16124756 3 61 C2.01 61.66 1.02 62.32 0 63 C0 42.21 0 21.42 0 0 Z " fill="#524B93" transform="translate(217,215)"/>
<path d="M0 0 C1.485 0.99 1.485 0.99 3 2 C3.38095093 4.16320801 3.38095093 4.16320801 3.38818359 6.87695312 C3.40236832 8.39863098 3.40236832 8.39863098 3.4168396 9.9510498 C3.40773056 11.5994989 3.40773056 11.5994989 3.3984375 13.28125 C3.40130768 14.40567505 3.40417786 15.5301001 3.40713501 16.68859863 C3.40917926 19.06925967 3.40362434 21.44993737 3.39111328 23.83056641 C3.37506551 27.48508075 3.39095066 31.13848901 3.41015625 34.79296875 C3.40817388 37.10156495 3.40433035 39.41016047 3.3984375 41.71875 C3.40451019 42.81771606 3.41058289 43.91668213 3.4168396 45.0489502 C3.40738312 46.0634021 3.39792664 47.077854 3.38818359 48.12304688 C3.38460342 49.46635071 3.38460342 49.46635071 3.38095093 50.83679199 C3.25523712 51.55065063 3.12952332 52.26450928 3 53 C2.01 53.66 1.02 54.32 0 55 C0 36.85 0 18.7 0 0 Z " fill="#6055A8" transform="translate(221,219)"/>
<path d="M0 0 C0.33 0 0.66 0 1 0 C1 29.04 1 58.08 1 88 C0.67 88 0.34 88 0 88 C0 71.83 0 55.66 0 39 C-0.66 39 -1.32 39 -2 39 C-2 27.45 -2 15.9 -2 4 C-1.34 4 -0.68 4 0 4 C0 2.68 0 1.36 0 0 Z " fill="#8359AD" transform="translate(200,225)"/>
<path d="M0 0 C0.33 0 0.66 0 1 0 C1 10.23 1 20.46 1 31 C0.01 30.01 -0.98 29.02 -2 28 C-2 27.34 -2 26.68 -2 26 C-2.99 26 -3.98 26 -5 26 C-5 18.74 -5 11.48 -5 4 C-4.01 4.33 -3.02 4.66 -2 5 C-1.34 3.35 -0.68 1.7 0 0 Z " fill="#5F54A7" transform="translate(254,231)"/>
<path d="M0 0 C1.485 0.99 1.485 0.99 3 2 C3.30380707 5.09844993 3.41982766 7.99327613 3.3984375 11.09375 C3.40130768 11.9962146 3.40417786 12.8986792 3.40713501 13.82849121 C3.40917839 15.738369 3.40362944 17.64826759 3.39111328 19.55810547 C3.37506337 22.48842988 3.39095259 25.41737495 3.41015625 28.34765625 C3.40817387 30.20052389 3.40433029 32.05339067 3.3984375 33.90625 C3.40451019 34.78647827 3.41058289 35.66670654 3.4168396 36.5736084 C3.38818359 39.04101562 3.38818359 39.04101562 3 43 C2.01 43.66 1.02 44.32 0 45 C0 30.15 0 15.3 0 0 Z " fill="#584F9C" transform="translate(225,224)"/>
<path d="M0 0 C0.99 0.33 1.98 0.66 3 1 C3 13.21 3 25.42 3 38 C2.01 38 1.02 38 0 38 C0 25.46 0 12.92 0 0 Z " fill="#5B51A1" transform="translate(229,227)"/>
<path d="M0 0 C0.99 0 1.98 0 3 0 C3.02692484 2.29160319 3.04636124 4.58329546 3.0625 6.875 C3.07410156 8.15117187 3.08570313 9.42734375 3.09765625 10.7421875 C3 14 3 14 2 16 C1.87951849 18.06223352 1.82259073 20.12828629 1.79467773 22.19384766 C1.77473251 23.49504547 1.75478729 24.79624329 1.73423767 26.13687134 C1.71725327 27.5626005 1.70037447 28.98833093 1.68359375 30.4140625 C1.66302479 31.86852613 1.64202834 33.32298377 1.62062073 34.7774353 C1.56539396 38.60786088 1.5159874 42.43834045 1.46777344 46.26885986 C1.4175628 50.1766847 1.36187446 54.084431 1.30664062 57.9921875 C1.19905167 65.66139185 1.09760838 73.33066145 1 81 C0.67 81 0.34 81 0 81 C0 54.27 0 27.54 0 0 Z " fill="#363467" transform="translate(288,206)"/>
<path d="M0 0 C0.33 0 0.66 0 1 0 C1.03066404 9.04165048 1.05099917 18.08330493 1.0625 27.125 C1.06335602 27.7932291 1.06421204 28.46145821 1.06509399 29.14993668 C1.09070279 51.77987669 0.81353932 74.38317424 0 97 C-0.33 97 -0.66 97 -1 97 C-0.99777939 95.8666069 -0.99555878 94.73321381 -0.99327087 93.56547546 C-0.97302092 82.89720614 -0.95801889 72.22894071 -0.94818783 61.56065655 C-0.94296373 56.0756672 -0.93587462 50.59069333 -0.92456055 45.10571289 C-0.91371493 39.81487182 -0.90771959 34.52404567 -0.90512276 29.23319435 C-0.90327154 27.21213356 -0.89965671 25.19107361 -0.89426994 23.17001915 C-0.88703734 20.34469192 -0.88601001 17.51942676 -0.88647461 14.6940918 C-0.88287933 13.85396042 -0.87928406 13.01382904 -0.87557983 12.14823914 C-0.88148553 8.84104762 -0.94666933 6.159992 -2 3 C-1.34 2.01 -0.68 1.02 0 0 Z " fill="#503F7A" transform="translate(211,217)"/>
<path d="M0 0 C0.33 0 0.66 0 1 0 C1 14.52 1 29.04 1 44 C0.67 44 0.34 44 0 44 C0 42.35 0 40.7 0 39 C-0.66 39 -1.32 39 -2 39 C-2.04956835 34.24944568 -2.08579909 29.49904312 -2.10986328 24.74829102 C-2.11989896 23.13335547 -2.13353051 21.518438 -2.15087891 19.90356445 C-2.17523465 17.57759125 -2.18650747 15.25185905 -2.1953125 12.92578125 C-2.20563507 12.20787918 -2.21595764 11.48997711 -2.22659302 10.75032043 C-2.22748903 6.71500132 -1.78957682 3.63178826 0 0 Z " fill="#2C2D58" transform="translate(256,225)"/>
<path d="M0 0 C1.485 0.99 1.485 0.99 3 2 C3.36076355 4.17666626 3.36076355 4.17666626 3.34057617 6.90869141 C3.34034958 7.92959869 3.34012299 8.95050598 3.33988953 10.00234985 C3.32440567 11.10759003 3.30892181 12.2128302 3.29296875 13.3515625 C3.28872391 14.4807309 3.28447906 15.60989929 3.28010559 16.77328491 C3.26327132 20.39076273 3.22560975 24.00768969 3.1875 27.625 C3.17245934 30.07290864 3.15876986 32.52082598 3.14648438 34.96875 C3.11335227 40.9793556 3.06310579 46.98963846 3 53 C2.67 53 2.34 53 2 53 C1.67 40.79 1.34 28.58 1 16 C0.67 16 0.34 16 0 16 C0 10.72 0 5.44 0 0 Z " fill="#433F7C" transform="translate(221,219)"/>
<path d="M0 0 C0.66 0 1.32 0 2 0 C2 8.25 2 16.5 2 25 C1.67 25 1.34 25 1 25 C0.67 27.64 0.34 30.28 0 33 C-0.33 33 -0.66 33 -1 33 C-1.02913072 28.62501407 -1.04684286 24.25005326 -1.0625 19.875 C-1.07087891 18.6375 -1.07925781 17.4 -1.08789062 16.125 C-1.09111328 14.92617187 -1.09433594 13.72734375 -1.09765625 12.4921875 C-1.10289307 11.39245605 -1.10812988 10.29272461 -1.11352539 9.15966797 C-1.0008558 6.02381895 -0.58626376 3.07940617 0 0 Z " fill="#2C2D59" transform="translate(277,196)"/>
<path d="M0 0 C0.33 0 0.66 0 1 0 C2.08808389 6.43629283 2.36094157 12.85896991 2.625 19.375 C2.6765625 20.47972656 2.728125 21.58445313 2.78125 22.72265625 C2.82507813 23.77066406 2.86890625 24.81867188 2.9140625 25.8984375 C2.9548291 26.85411621 2.9955957 27.80979492 3.03759766 28.79443359 C3 31 3 31 2 32 C1.76924918 33.34747084 1.58846937 34.70377565 1.4375 36.0625 C1.2209375 38.0115625 1.2209375 38.0115625 1 40 C0.67 40 0.34 40 0 40 C0 26.8 0 13.6 0 0 Z " fill="#31315F" transform="translate(247,227)"/>
<path d="M0 0 C0.33 0 0.66 0 1 0 C1.11522956 12.38077633 0.89587605 24.6497088 0 37 C-0.33 37 -0.66 37 -1 37 C-1.02505615 36.22809326 -1.0501123 35.45618652 -1.07592773 34.66088867 C-1.19184007 31.16958819 -1.31458824 27.67856078 -1.4375 24.1875 C-1.47681641 22.97255859 -1.51613281 21.75761719 -1.55664062 20.50585938 C-1.59853516 19.34248047 -1.64042969 18.17910156 -1.68359375 16.98046875 C-1.72025146 15.90692139 -1.75690918 14.83337402 -1.79467773 13.72729492 C-1.89541847 10.90688447 -1.89541847 10.90688447 -3 8 C-2.44140625 5.95703125 -2.44140625 5.95703125 -1.5625 3.8125 C-1.13130859 2.73935547 -1.13130859 2.73935547 -0.69140625 1.64453125 C-0.46324219 1.10183594 -0.23507812 0.55914062 0 0 Z " fill="#1E2242" transform="translate(264,202)"/>
<path d="M0 0 C0.33 0 0.66 0 1 0 C1.27545028 2.93713834 1.52119478 5.87168002 1.75 8.8125 C1.83121094 9.64587891 1.91242188 10.47925781 1.99609375 11.33789062 C2.16124768 13.62251994 2.27778935 15.72545624 2 18 C0.015625 20.07421875 0.015625 20.07421875 -2 21 C-2.05390357 18.06225537 -2.0936255 15.12549768 -2.125 12.1875 C-2.14175781 11.35412109 -2.15851563 10.52074219 -2.17578125 9.66210938 C-2.18222656 8.85966797 -2.18867188 8.05722656 -2.1953125 7.23046875 C-2.20578613 6.49207764 -2.21625977 5.75368652 -2.22705078 4.99291992 C-2 3 -2 3 0 0 Z " fill="#292951" transform="translate(294,196)"/>
<path d="M0 0 C0.33 0 0.66 0 1 0 C1.08687496 3.12482562 1.14034568 6.24934246 1.1875 9.375 C1.21263672 10.26445312 1.23777344 11.15390625 1.26367188 12.0703125 C1.27333984 12.92109375 1.28300781 13.771875 1.29296875 14.6484375 C1.3086792 15.43395996 1.32438965 16.21948242 1.34057617 17.02880859 C1.22818604 17.67930176 1.1157959 18.32979492 1 19 C0.01 19.66 -0.98 20.32 -2 21 C-2 16.05 -2 11.1 -2 6 C-1.34 6 -0.68 6 0 6 C0 4.02 0 2.04 0 0 Z " fill="#30305F" transform="translate(286,268)"/>
<path d="M0 0 C2.86568813 2.86568813 3.15349336 5.35964092 3.1875 9.25 C3.15262608 13.51159281 2.36925332 16.97781837 1 21 C0.67 21 0.34 21 0 21 C0 14.07 0 7.14 0 0 Z " fill="#493C75" transform="translate(348,259)"/>
<path d="M0 0 C0.33 0 0.66 0 1 0 C1.33 2.64 1.66 5.28 2 8 C2.33 8 2.66 8 3 8 C3 11.63 3 15.26 3 19 C2.01 19 1.02 19 0 19 C0 12.73 0 6.46 0 0 Z " fill="#1E2242" transform="translate(276,279)"/>
<path d="M0 0 C1.485 0.99 1.485 0.99 3 2 C3.22107787 4.7885289 3.28107535 7.34653181 3.1875 10.125 C3.17396484 10.87910156 3.16042969 11.63320312 3.14648438 12.41015625 C3.11109985 14.27374127 3.05729167 16.13695978 3 18 C2.01 17.34 1.02 16.68 0 16 C-0.22107787 13.2114711 -0.28107535 10.65346819 -0.1875 7.875 C-0.17396484 7.12089844 -0.16042969 6.36679688 -0.14648438 5.58984375 C-0.11109985 3.72625873 -0.05729167 1.86304022 0 0 Z " fill="#3E3B73" transform="translate(217,215)"/>
<path d="M0 0 C0.33 0 0.66 0 1 0 C1.33 2.64 1.66 5.28 2 8 C2.33 8 2.66 8 3 8 C3.08131463 9.43655854 3.13933559 10.8744483 3.1875 12.3125 C3.23970703 13.51326172 3.23970703 13.51326172 3.29296875 14.73828125 C3 17 3 17 0 20 C0 13.4 0 6.8 0 0 Z " fill="#23264A" transform="translate(280,275)"/>
<path d="M0 0 C0.33 0 0.66 0 1 0 C1.05401695 2.91691525 1.09368066 5.83282724 1.125 8.75 C1.15013672 9.9875 1.15013672 9.9875 1.17578125 11.25 C1.18222656 12.04921875 1.18867188 12.8484375 1.1953125 13.671875 C1.20578613 14.4050293 1.21625977 15.13818359 1.22705078 15.89355469 C0.96777544 18.29896076 0.19225925 19.91251494 -1 22 C-1.22333047 19.45886142 -1.42902091 16.91827416 -1.625 14.375 C-1.68945312 13.66214844 -1.75390625 12.94929687 -1.8203125 12.21484375 C-2.15497142 7.65511601 -1.78239103 4.31311418 0 0 Z " fill="#222548" transform="translate(260,213)"/>
<path d="M0 0 C1.51953125 1.01953125 1.51953125 1.01953125 3 3 C3.05546517 5.67108574 2.96547069 8.05292823 2.6875 10.6875 C2.62626953 11.38939453 2.56503906 12.09128906 2.50195312 12.81445312 C2.34897376 14.5442967 2.17637398 16.27238497 2 18 C-0.45391569 14.31912647 -0.22802759 11.55644412 -0.125 7.3125 C-0.11597656 6.61060547 -0.10695313 5.90871094 -0.09765625 5.18554688 C-0.07413704 3.45688475 -0.03826713 1.72839855 0 0 Z " fill="#4C4587" transform="translate(344,253)"/>
<path d="M0 0 C0.33 0 0.66 0 1 0 C1.95261487 4.76307437 2.08333357 9.1666528 2 14 C1.67 14 1.34 14 1 14 C-0.79217969 8.83430559 -1.12029814 5.48946087 0 0 Z " fill="#1F2445" transform="translate(259,266)"/>
</svg>
